<svg width="12" height="12" viewBox="0 0 12 12" version="1.1" xmlns="http://www.w3.org/2000/svg" xmlns:xlink="http://www.w3.org/1999/xlink">
<title>Group</title>
<desc>Created using Figma</desc>
<g id="Canvas" transform="translate(1880 -390)">
<g id="logo">
<g id="Group">
<g id="Vector">
<use xlink:href="#path0_fill" transform="translate(-1880 391.32)" fill="#1A5099"/>
</g>
<g id="Vector">
<use xlink:href="#path1_fill" transform="translate(-1872.09 391.32)" fill="#1A5099"/>
</g>
<g id="Vector">
<use xlink:href="#path2_fill" transform="translate(-1876.57 390)" fill="#4BA2F2"/>
</g>
</g>
</g>
</g>
<defs>
<path id="path0_fill" d="M 0.00256515 2.15165C 0.00256515 2.13797 0.00598611 2.12429 0.00598611 2.1106C 0.0128276 2.01824 0.0299312 1.92588 0.0538764 1.83352C 0.139395 1.52224 0.327538 1.252 0.536204 1.00912C 0.584094 0.950969 0.631984 0.896237 0.683296 0.841505C 0.686716 0.838084 0.690137 0.834664 0.693558 0.831243C 0.905644 0.605473 1.13141 0.396807 1.37429 0.208666C 1.38113 0.201824 1.38797 0.198404 1.39139 0.194983C 1.41192 0.177879 1.43244 0.164196 1.45639 0.147092C 1.47007 0.13683 1.48717 0.123147 1.50428 0.109464C 1.50428 0.109464 1.5077 0.109464 1.5077 0.106043C 1.51112 0.102623 1.51796 0.0992019 1.52138 0.0957812C 1.52822 0.0923604 1.53506 0.0855189 1.5419 0.0820981C 1.55901 0.0718359 1.57269 0.0581529 1.5898 0.0478906C 1.61032 0.0307868 1.63769 0.0171037 1.66505 0.0068414C 1.66847 0.0068414 1.66847 0.0068414 1.67189 0.0068414C 1.67531 0.0068414 1.67874 0.0034207 1.68216 0.0034207C 1.689 0.0034207 1.69242 -9.72236e-16 1.69926 -9.72236e-16C 1.7061 -9.72236e-16 1.71294 -9.72236e-16 1.71978 -9.72236e-16L 1.7232 -9.72236e-16C 1.78136 0.00342075 1.82583 0.0478905 1.83609 0.106043C 1.84293 0.147092 1.83609 0.198404 1.82925 0.246294C 1.79846 0.379703 1.77451 0.516534 1.75741 0.653364L 1.75741 0.656784C 1.61374 1.66933 1.97634 2.68871 2.42446 3.60889C 2.60234 3.97491 2.79732 4.33751 2.98546 4.70011C 3.00257 4.73432 3.01967 4.76511 3.03677 4.7959C 3.04704 4.81984 3.06072 4.84036 3.07098 4.86431C 3.08466 4.88826 3.09492 4.9122 3.10861 4.93615C 3.12913 4.9772 3.14966 5.02167 3.17018 5.06271C 3.18729 5.09692 3.20439 5.13113 3.21807 5.16192C 3.21807 5.16534 3.22149 5.16534 3.22149 5.16876C 3.22834 5.18244 3.23518 5.19612 3.24202 5.21323C 3.25912 5.25086 3.27623 5.28506 3.29333 5.32269C 3.33438 5.40821 3.37201 5.49715 3.40964 5.58609C 3.42332 5.61688 3.437 5.65108 3.45068 5.68187C 3.46095 5.70924 3.47121 5.7366 3.48147 5.76055C 3.49173 5.79133 3.50542 5.8187 3.51568 5.84949C 3.54647 5.93159 3.57725 6.01368 3.60462 6.0992C 3.61146 6.11631 3.61488 6.12999 3.62172 6.14709C 3.62856 6.16762 3.63541 6.18814 3.64225 6.20867C 3.64225 6.21209 3.64225 6.21209 3.64567 6.21551C 3.65251 6.23945 3.65935 6.2634 3.66619 6.28734C 3.66961 6.30103 3.67645 6.31471 3.67987 6.33181C 3.68672 6.35234 3.69356 6.37628 3.69698 6.39681C 3.70382 6.42417 3.71408 6.45154 3.72092 6.48233C 3.72092 6.48575 3.72092 6.48917 3.72434 6.48917C 3.73803 6.53706 3.74829 6.58153 3.75855 6.62942C 3.76197 6.64652 3.76539 6.66021 3.76881 6.67731C 3.77908 6.7252 3.78592 6.77309 3.79276 6.82098C 3.79618 6.83808 3.79618 6.85177 3.7996 6.86887C 3.80302 6.89966 3.80644 6.93044 3.80986 6.95781L 3.80986 6.96123C 3.81328 6.99202 3.8167 7.02623 3.8167 7.05701C 3.82012 7.12201 3.82012 7.19042 3.8167 7.25542C 3.8167 7.2691 3.81328 7.28278 3.81328 7.29647C 3.80644 7.38883 3.78934 7.48119 3.76539 7.57013C 3.67987 7.88141 3.49173 8.15165 3.28307 8.39795C 3.23518 8.4561 3.18729 8.51083 3.13598 8.56557C 3.13256 8.56899 3.12913 8.57241 3.12571 8.57583C 2.91363 8.8016 2.68786 9.01026 2.44498 9.1984C 2.43814 9.20525 2.4313 9.20867 2.42788 9.21209C 2.40736 9.22919 2.38683 9.24287 2.36288 9.25998C 2.3492 9.27024 2.3321 9.28392 2.315 9.29761L 2.31157 9.30103C 2.30815 9.30445 2.30131 9.30787 2.29789 9.31129C 2.29105 9.31471 2.28421 9.32155 2.27737 9.32497C 2.26026 9.33523 2.24658 9.34892 2.22948 9.35918C 2.20895 9.37628 2.18159 9.38997 2.15422 9.40023C 2.1508 9.40023 2.1508 9.40023 2.14738 9.40023C 2.14396 9.40023 2.14054 9.40365 2.13712 9.40365C 2.13027 9.40365 2.12685 9.40707 2.12001 9.40707C 2.11317 9.40707 2.10633 9.40707 2.09949 9.40707L 2.09607 9.40707C 2.03791 9.40365 1.99344 9.35918 1.98318 9.30103C 1.97634 9.25998 1.98318 9.20867 1.99002 9.16078C 2.02081 9.02737 2.04475 8.89054 2.06186 8.75371L 2.06186 8.75029C 2.20553 7.73774 1.84293 6.71836 1.39481 5.79818C 1.21693 5.43216 1.02195 5.06956 0.833808 4.70696C 0.816704 4.67275 0.7996 4.64196 0.782496 4.61118C 0.772234 4.58723 0.758551 4.56671 0.748289 4.54276C 0.734606 4.51881 0.724344 4.49487 0.710661 4.47092C 0.690137 4.42987 0.669613 4.38541 0.649088 4.34436C 0.631984 4.31015 0.61488 4.27594 0.601197 4.24515C 0.601197 4.24173 0.597777 4.24173 0.597777 4.23831C 0.590935 4.22463 0.584093 4.21095 0.577251 4.19384C 0.560147 4.15621 0.543044 4.12201 0.52594 4.08438C 0.484891 3.99886 0.447264 3.90992 0.409636 3.82098C 0.395952 3.79019 0.382269 3.75599 0.368586 3.7252C 0.358324 3.69783 0.348061 3.67047 0.337798 3.64652C 0.327536 3.61574 0.313853 3.58837 0.303591 3.55758C 0.272804 3.47548 0.242018 3.39339 0.214652 3.30787C 0.207811 3.29076 0.20439 3.27708 0.197548 3.25998C 0.190707 3.23945 0.183866 3.21893 0.177025 3.1984C 0.177025 3.19498 0.177024 3.19498 0.173603 3.19156C 0.166761 3.16762 0.159921 3.14367 0.153079 3.11973C 0.149658 3.10604 0.142816 3.09236 0.139395 3.07526C 0.132554 3.05473 0.125712 3.03079 0.122291 3.01026C 0.11545 2.9829 0.105187 2.95553 0.0983458 2.92474C 0.0983458 2.92132 0.0983466 2.9179 0.0949259 2.9179C 0.0812429 2.87001 0.0709806 2.82554 0.0607184 2.77765C 0.0572976 2.76055 0.0538773 2.74686 0.0504565 2.72976C 0.0401943 2.68187 0.0333523 2.63398 0.0265108 2.58609C 0.0230901 2.56899 0.0230897 2.5553 0.0196689 2.5382C 0.0162482 2.50741 0.0128278 2.47663 0.00940707 2.44926L 0.00940707 2.44584C 0.00598632 2.41505 0.00256515 2.38084 0.00256515 2.35006C -0.000855606 2.28506 -0.000855606 2.22007 0.00256515 2.15165Z"/>
<path id="path1_fill" d="M 0.0025664 2.15165C 0.0025664 2.13797 0.00598632 2.12429 0.00598632 2.1106C 0.0128278 2.01824 0.0299324 1.92588 0.0538777 1.83352C 0.139396 1.52224 0.327537 1.252 0.536203 1.00912C 0.584094 0.950969 0.631984 0.896237 0.683295 0.841505C 0.686716 0.838084 0.690136 0.834664 0.693557 0.831243C 0.905643 0.605473 1.13141 0.396807 1.37429 0.208666C 1.38113 0.201824 1.38797 0.198404 1.39139 0.194983C 1.41192 0.177879 1.43244 0.164196 1.45639 0.147092C 1.47007 0.13683 1.48717 0.123147 1.50428 0.109464C 1.50428 0.109464 1.5077 0.109464 1.5077 0.106043C 1.51112 0.102623 1.51796 0.0992019 1.52138 0.0957812C 1.52822 0.0923604 1.53506 0.0855189 1.5419 0.0820981C 1.55901 0.0718359 1.57269 0.0581529 1.58979 0.0478906C 1.61032 0.0307868 1.63769 0.0171037 1.66505 0.0068414C 1.66847 0.0068414 1.66847 0.0068414 1.67189 0.0068414C 1.67531 0.0068414 1.67873 0.0034207 1.68216 0.0034207C 1.689 0.0034207 1.69242 -9.72236e-16 1.69926 -9.72236e-16C 1.7061 -9.72236e-16 1.71294 -9.72236e-16 1.71978 -9.72236e-16L 1.7232 -9.72236e-16C 1.78136 0.00342075 1.82583 0.0478905 1.83609 0.106043C 1.84293 0.147092 1.83609 0.198404 1.82925 0.246294C 1.79846 0.379703 1.77452 0.516534 1.75741 0.653364L 1.75741 0.656784C 1.61374 1.66933 1.97634 2.68871 2.42446 3.60889C 2.60234 3.97491 2.79732 4.33751 2.98546 4.70011C 3.00256 4.73432 3.01967 4.76511 3.03677 4.7959C 3.04703 4.81984 3.06072 4.84036 3.07098 4.86431C 3.08466 4.88826 3.09493 4.9122 3.10861 4.93615C 3.12913 4.9772 3.14966 5.02167 3.17018 5.06271C 3.18729 5.09692 3.20439 5.13113 3.21807 5.16192C 3.21807 5.16534 3.22149 5.16534 3.22149 5.16876C 3.22834 5.18244 3.23518 5.19612 3.24202 5.21323C 3.25912 5.25086 3.27622 5.28506 3.29333 5.32269C 3.33438 5.40821 3.37201 5.49715 3.40964 5.58609C 3.42332 5.61688 3.437 5.65108 3.45068 5.68187C 3.46095 5.70924 3.47121 5.7366 3.48147 5.76055C 3.49173 5.79133 3.50542 5.8187 3.51568 5.84949C 3.54646 5.93159 3.57725 6.01368 3.60462 6.0992C 3.61146 6.11631 3.61488 6.12999 3.62172 6.14709C 3.62856 6.16762 3.6354 6.18814 3.64225 6.20867C 3.64225 6.21209 3.64225 6.21209 3.64567 6.21551C 3.65251 6.23945 3.65935 6.2634 3.66619 6.28734C 3.66961 6.30103 3.67645 6.31471 3.67988 6.33181C 3.68672 6.35234 3.69356 6.37628 3.69698 6.39681C 3.70382 6.42417 3.71408 6.45154 3.72092 6.48233C 3.72092 6.48575 3.72092 6.48917 3.72434 6.48917C 3.73803 6.53706 3.74829 6.58153 3.75855 6.62942C 3.76197 6.64652 3.76539 6.66021 3.76881 6.67731C 3.77908 6.7252 3.78592 6.77309 3.79276 6.82098C 3.79618 6.83808 3.79618 6.85177 3.7996 6.86887C 3.80302 6.89966 3.80644 6.93044 3.80986 6.95781L 3.80986 6.96123C 3.81328 6.99202 3.81671 7.02623 3.81671 7.05701C 3.82013 7.12201 3.82013 7.19042 3.81671 7.25542C 3.81671 7.2691 3.81328 7.28278 3.81328 7.29647C 3.80644 7.38883 3.78934 7.48119 3.76539 7.57013C 3.67988 7.88141 3.49173 8.15165 3.28307 8.39795C 3.23518 8.4561 3.18729 8.51083 3.13597 8.56557C 3.13255 8.56899 3.12913 8.57241 3.12571 8.57583C 2.91363 8.8016 2.68786 9.01026 2.44498 9.1984C 2.43814 9.20525 2.4313 9.20867 2.42788 9.21209C 2.40735 9.22919 2.38683 9.24287 2.36289 9.25998C 2.3492 9.27024 2.3321 9.28392 2.31499 9.29761L 2.31157 9.30103C 2.30815 9.30445 2.30131 9.30787 2.29789 9.31129C 2.29105 9.31471 2.28421 9.32155 2.27737 9.32497C 2.26026 9.33523 2.24658 9.34892 2.22948 9.35918C 2.20895 9.37628 2.18158 9.38997 2.15422 9.40023C 2.1508 9.40023 2.1508 9.40023 2.14738 9.40023C 2.14396 9.40023 2.14054 9.40365 2.13711 9.40365C 2.13027 9.40365 2.12685 9.40707 2.12001 9.40707C 2.11317 9.40707 2.10633 9.40707 2.09949 9.40707L 2.09607 9.40707C 2.03791 9.40365 1.99344 9.35918 1.98318 9.30103C 1.97634 9.25998 1.98318 9.20867 1.99002 9.16078C 2.02081 9.02737 2.04475 8.89054 2.06186 8.75371L 2.06186 8.75029C 2.20553 7.73774 1.84293 6.71836 1.39481 5.79818C 1.21693 5.43216 1.02195 5.06956 0.833809 4.70696C 0.816705 4.67275 0.799601 4.64196 0.782498 4.61118C 0.772235 4.58723 0.758552 4.56671 0.74829 4.54276C 0.734607 4.51881 0.724343 4.49487 0.71066 4.47092C 0.690136 4.42987 0.669612 4.38541 0.649087 4.34436C 0.631984 4.31015 0.614881 4.27594 0.601198 4.24515C 0.601198 4.24173 0.597776 4.24173 0.597776 4.23831C 0.590935 4.22463 0.584094 4.21095 0.577252 4.19384C 0.560149 4.15621 0.543045 4.12201 0.525941 4.08438C 0.484892 3.99886 0.447263 3.90992 0.409635 3.82098C 0.395952 3.79019 0.382268 3.75599 0.368585 3.7252C 0.358323 3.69783 0.348062 3.67047 0.3378 3.64652C 0.327537 3.61574 0.313854 3.58837 0.303592 3.55758C 0.272805 3.47548 0.242017 3.39339 0.214651 3.30787C 0.20781 3.29076 0.204389 3.27708 0.197548 3.25998C 0.190706 3.23945 0.183865 3.21893 0.177024 3.1984C 0.177024 3.19498 0.177025 3.19498 0.173604 3.19156C 0.166763 3.16762 0.15992 3.14367 0.153078 3.11973C 0.149658 3.10604 0.142817 3.09236 0.139397 3.07526C 0.132555 3.05473 0.125713 3.03079 0.122293 3.01026C 0.115451 2.9829 0.105189 2.95553 0.098347 2.92474C 0.098347 2.92132 0.0983458 2.9179 0.094925 2.9179C 0.081242 2.87001 0.0709798 2.82554 0.0607175 2.77765C 0.0572968 2.76055 0.0538764 2.74686 0.0504557 2.72976C 0.0401934 2.68187 0.0333515 2.63398 0.02651 2.58609C 0.0230892 2.56899 0.0230909 2.5553 0.0196702 2.5382C 0.0162494 2.50741 0.012827 2.47663 0.00940623 2.44926L 0.00940623 2.44584C 0.00598548 2.41505 0.0025664 2.38084 0.0025664 2.35006C -0.000854353 2.28506 -0.000854353 2.22007 0.0025664 2.15165Z"/>
<path id="path2_fill" d="M 0.00513029 2.74686C 0.00513029 2.72976 0.0085523 2.71266 0.0085523 2.69555C 0.0188146 2.57583 0.0393387 2.45952 0.0701254 2.34322C 0.17959 1.94641 0.422463 1.60433 0.685861 1.28962C 0.747434 1.21779 0.809008 1.14595 0.874002 1.07754C 0.877423 1.07412 0.884265 1.06727 0.887686 1.06385C 1.15793 0.776511 1.44869 0.509692 1.75656 0.266819C 1.7634 0.259977 1.77366 0.253136 1.7805 0.249715C 1.80787 0.22919 1.83523 0.208666 1.8626 0.188141C 1.88313 0.174458 1.90023 0.157355 1.92417 0.140251L 1.92759 0.13683C 1.93444 0.133409 1.93786 0.129989 1.9447 0.123147C 1.95154 0.116306 1.9618 0.109464 1.96864 0.106043C 1.98917 0.0923603 2.00969 0.0752566 2.03022 0.0615736C 2.05758 0.0410491 2.09179 0.0205245 2.126 0.0102623C 2.12942 0.0102623 2.12942 0.00684145 2.13284 0.00684145C 2.13626 0.0034207 2.1431 0.00342075 2.14652 0.00342075C 2.15336 0 2.1602 5.21965e-08 2.16705 5.21965e-08C 2.17731 5.21965e-08 2.18415 5.21965e-08 2.19441 5.21965e-08C 2.19783 5.21965e-08 2.19783 5.21965e-08 2.19783 5.21965e-08C 2.27309 0.0034208 2.33124 0.0615735 2.34151 0.133409C 2.34835 0.188141 2.3415 0.249715 2.33124 0.311289C 2.33124 0.311289 2.33124 0.311288 2.33124 0.314709C 2.29019 0.485747 2.25941 0.656784 2.23888 0.831243C 2.23888 0.834664 2.23888 0.834664 2.23888 0.834664C 2.05758 2.12771 2.51938 3.42417 3.09065 4.59749C 3.31984 5.06613 3.56614 5.52452 3.80559 5.98974C 3.82611 6.03079 3.84664 6.07184 3.86716 6.11289C 3.88084 6.14025 3.89795 6.17104 3.91163 6.1984C 3.92873 6.22919 3.94242 6.25998 3.95952 6.29076C 3.98689 6.3455 4.01425 6.39681 4.0382 6.45154C 4.05872 6.49259 4.07925 6.53706 4.09977 6.57811C 4.10319 6.58153 4.10319 6.58495 4.10319 6.58837C 4.11346 6.60547 4.1203 6.626 4.13056 6.6431C 4.1545 6.69099 4.17503 6.73546 4.19555 6.78335C 4.24686 6.89624 4.29476 7.0057 4.34265 7.11859C 4.35975 7.15964 4.37685 7.20069 4.39396 7.24173C 4.40764 7.27594 4.42132 7.31015 4.43501 7.34436C 4.44869 7.38198 4.46579 7.41961 4.47948 7.45724C 4.52053 7.56328 4.55815 7.66933 4.59236 7.77537C 4.5992 7.7959 4.60604 7.81642 4.61288 7.83694C 4.62315 7.86431 4.62999 7.88826 4.63683 7.91562C 4.63683 7.91904 4.64025 7.92246 4.64025 7.92246C 4.65051 7.95325 4.66078 7.98404 4.66762 8.01482C 4.67446 8.03193 4.67788 8.05245 4.68472 8.06956C 4.69156 8.09692 4.70182 8.12429 4.70867 8.15165C 4.71893 8.18586 4.72919 8.22349 4.73945 8.2577C 4.73945 8.26112 4.74287 8.26454 4.74287 8.26796C 4.75656 8.32611 4.77366 8.38769 4.78392 8.44926C 4.78734 8.46978 4.79419 8.49031 4.79761 8.51083C 4.80787 8.57241 4.82155 8.63056 4.82839 8.69213C 4.83181 8.71266 4.83524 8.73318 4.83866 8.75371C 4.84208 8.79133 4.84892 8.82896 4.85234 8.87001C 4.85234 8.87343 4.85234 8.87343 4.85234 8.87685C 4.85576 8.9179 4.85918 8.95895 4.85918 9C 4.8626 9.08552 4.8626 9.16762 4.85918 9.25314C 4.85918 9.27024 4.85576 9.28734 4.85576 9.30445C 4.8455 9.42417 4.82497 9.54048 4.79418 9.65679C 4.68472 10.0536 4.44185 10.3957 4.17845 10.7104C 4.11688 10.7822 4.0553 10.854 3.99031 10.9225C 3.98689 10.9259 3.98005 10.9327 3.97663 10.9361C 3.70639 11.2235 3.41562 11.4903 3.10775 11.7332C 3.10091 11.74 3.09065 11.7469 3.08381 11.7503C 3.05644 11.7708 3.02908 11.7913 3.00171 11.8119C 2.98119 11.8255 2.96408 11.8426 2.94014 11.8597L 2.93672 11.8632C 2.92987 11.8666 2.92645 11.87 2.91961 11.8769C 2.91277 11.8837 2.90251 11.8905 2.89567 11.894C 2.87514 11.9076 2.85462 11.9247 2.83409 11.9384C 2.80673 11.959 2.77252 11.9795 2.73831 11.9897C 2.73489 11.9897 2.73489 11.9932 2.73147 11.9932C 2.72805 11.9966 2.72121 11.9966 2.71779 11.9966C 2.71095 12 2.7041 12 2.69726 12C 2.687 12 2.68016 12 2.6699 12C 2.66648 12 2.66648 12 2.66648 12C 2.59122 11.9966 2.53307 11.9384 2.52281 11.8666C 2.51596 11.8119 2.52281 11.7503 2.53307 11.6887C 2.53307 11.6887 2.53307 11.6887 2.53307 11.6853C 2.57412 11.5143 2.6049 11.3432 2.62543 11.1688C 2.62543 11.1653 2.62543 11.1653 2.62543 11.1653C 2.80673 9.87229 2.34493 8.57583 1.77366 7.40251C 1.54447 6.93387 1.29818 6.47549 1.05872 6.01026C 1.0382 5.96921 1.01767 5.92816 0.997149 5.88712C 0.983466 5.85975 0.966362 5.82896 0.952679 5.8016C 0.935575 5.77081 0.921894 5.74002 0.90479 5.70924C 0.877424 5.6545 0.850056 5.60319 0.826111 5.54846C 0.805586 5.50741 0.785062 5.46294 0.764538 5.42189C 0.761117 5.41847 0.761118 5.41505 0.761118 5.41163C 0.750856 5.39453 0.744015 5.374 0.733752 5.3569C 0.709807 5.30901 0.689282 5.26454 0.668757 5.21665C 0.617446 5.10376 0.569556 4.9943 0.521665 4.88141C 0.504561 4.84037 0.487458 4.79932 0.470354 4.75827C 0.456671 4.72406 0.442988 4.68985 0.429304 4.65564C 0.415621 4.61802 0.398518 4.58039 0.384835 4.54276C 0.343786 4.43672 0.306158 4.33067 0.271951 4.22463C 0.265109 4.2041 0.258266 4.18358 0.251425 4.16306C 0.241163 4.13569 0.234321 4.11174 0.227479 4.08438C 0.227479 4.08096 0.224059 4.07754 0.224059 4.07754C 0.213797 4.04675 0.203535 4.01596 0.196694 3.98518C 0.189852 3.96807 0.186431 3.94755 0.17959 3.93044C 0.172748 3.90308 0.162486 3.87571 0.155644 3.84835C 0.145382 3.81414 0.135119 3.77651 0.124857 3.7423C 0.124857 3.73888 0.121437 3.73546 0.121437 3.73204C 0.107754 3.67389 0.0906495 3.61231 0.0803873 3.55074C 0.0769665 3.53022 0.0701263 3.50969 0.0667055 3.48917C 0.0564433 3.42759 0.0427594 3.36944 0.0359179 3.30787C 0.0324971 3.28734 0.0290768 3.26682 0.0256561 3.24629C 0.0222353 3.20867 0.015393 3.17104 0.0119722 3.12999C 0.0119722 3.12657 0.0119722 3.12657 0.0119722 3.12315C 0.00855146 3.0821 0.00513029 3.04105 0.00513029 3C -0.00171121 2.91448 -0.00171121 2.82896 0.00513029 2.74686Z"/>
</defs>
</svg>
